<svg id="Camada_1" xmlns="http://www.w3.org/2000/svg" viewBox="0 0 450 493"><style>.st0{fill:#FFCF57;} .st1{fill:#3D3D3D;} .st2{fill:#AF240B;} .st3{fill:#F9D5B4;} .st4{fill:#F2B78B;} .st5{fill:#4F433B;} .st6{opacity:0.3;fill:#FFFFFF;} .st7{opacity:0.2;} .st8{fill:#110F0F;}</style><g id="XMLID_121_"><circle id="XMLID_97_" class="st0" cx="225" cy="268" r="222.2"/><path id="XMLID_159_" class="st1" d="M225 493C100.9 493 0 392.1 0 268S100.9 43 225 43s225 101 225 225-100.9 225-225 225zm0-444.3C104.1 48.7 5.7 147.1 5.7 268S104.1 487.4 225 487.4 444.3 389 444.3 268 345.9 48.7 225 48.7z"/><path id="XMLID_86_" class="st2" d="M394.6 347.4l-15.9-6.4-18.1-5.9-30.7-10.6-25.5-7.1-16.5-4.5-4.4 5.9-15.7 3.9-41.3 4.7s-12.3.3-13.9.3-29.5-3.6-30.3-4.5c-.7-.8-18.8-7.9-18.8-7.9l-6.5.1-28.4 9s-25.9 6.6-28.7 8-22 7-22 7l-29.3 15.9-10.9 11.5-4.4 8.2c37 67.7 112 113.4 191.5 112.4 91.3-1.1 154.4-45.6 194.6-116.1l-11-12.8-13.8-11.1z"/><g id="XMLID_111_"><path id="XMLID_84_" class="st3" d="M195.4 287.6l-8.1-6.3-2.8-1.5-2.8 9.1v9.2l-3.7 5.4s-4 3.5-4.4 3.8c-.4.3-6 2-6 2l-3.8 2.1 1.1 2.6 25.9 8 39.6 4.3 36.4-4.2 12.1-3.6 7.2-1.3 5.3-3.7-1.6-2-8.9-4.4-4-4.7s-2.3-6.5-2.4-7c-.1-.4-1.4-8.2-1.4-8.2l-.6-8.1-3.8 2.2-10.8 5.1-15.6 7.2-12.5 1.6"/><path id="XMLID_83_" class="st4" d="M184.6 266.7s-1.1 8.6-1 9.6 2.4 5.9 2.4 5.9l28.3 11.9 11.9.6s14-.9 15-1c1-.1 19.6-6.5 19.6-6.5l8.8-6.5 1.9-7.9-1-7.5-15.8 8.5s-16.8 4-17.3 4.1-20 1.1-20 1.1l-10.2-3.4-12.2-2.8-7.4-3.7-3-2.4z"/><path id="XMLID_145_" class="st5" d="M326.2 125l-4.1-2.1-4.1 2.8-1.7 4.4-1.3 6.5 1.3 7v16.6l-1.8 7.4-2.1 14.6-3.4 7.4s-4.1 10.1-4.3 10.6c-.1.5-4.5 5.9-4.5 5.9l-6.7 7.8s-7.4 5.4-8.2 6c-.9.6-5.8.7-6.3.7-.4 0-5.7-3.2-6.1-3.7-.4-.4-1.9-5.3-2-5.8s-3.1-7.8-3.1-7.8l-2.7-4.3-5.3-5.8-6.7-3.1 1.3-1.4-38-2.8s-9.9 2.2-10.2 2.4c-.3.2-6.4.4-6.4.4l-10.4 6.6s-7.3 7.5-7.4 7.8c-.1.3-1 5.2-1 5.2s-1 7-1.1 7.4c-.1.4-4.5 4.5-4.5 4.5H170s-6.3-2.3-6.5-2.1c-.3.2-7.2-4.6-7.2-4.6l-14.7-24.4s-1.8-8.6-2-8.9c-.2-.3-3.3-11.6-3.3-11.6l-.2-25 .8-10.5-2.9-6.3-7.3-4.7-1 2.2.5 4.4s1.2 6.5 1.2 6.8c0 .3-.7 5.5-.7 5.5l1.2 10.8v21.3l4.5 21.2 2 14.9 8 15.7 7.4 12.3 15 15.9 24.9 16.9 37.8 9 31.4-5.6 10.5-8 4.2-1.3 16.1-11.5 14.5-19.9 8.8-20.3 8.7-28.3 3-26s.4-15.4.4-16.7 2.3-7.8 2.3-7.8l-1.2-8.6zm-94.8 111.2l-12.4 1.5s-3.6 4.9-4 5.2c-.4.3-1.9 1.9-2.2 2.2-.3.3-4.9 1.8-5.2 2-.3.2-4.6.6-5.5.6s-6.5-2-8.5-2.1-2.6-3.6-2.6-3.6l-2.2-4.5.6-14.9 1.2-7.4 4.5-6.2 6.7-5.4 8.8-3.1 32.2-.4 6.7 3.4 10.2 10.3 1.9 7.6.6 9.8s-2.4 11.9-3.1 12.5c-.5.4-1.8 2.9-2.6 4.2l-16.7-2.4-8.4-9.3z"/><path id="XMLID_76_" class="st3" d="M222.2 197.6s9.4 1.2 10.2 1.4c.9.3 11.4 3.1 11.4 3.1l10.6 6.4 7.7 12s.1 7.1 0 8.3c-.1 1.2-1.6 9.7-1.7 10.3-.2.6-7.8 8.3-8.2 8.3-.4-.1-8.6.1-9 0-.4-.1-8.1-2.2-8.1-2.6 0-.4-4.4-6.4-4.4-6.8s-2.4-2.4-3.3-2.4-7.5-.7-7.5-.7l-3 5.6s-7.4 6-8.7 6.4-9.4 1.1-9.4 1.1l-7.8-6.1-3.2-11.4 1-11.9 1.8-6.4 5.6-4.2c.4-.3 9.3-2.5 9.3-3.3"/><path id="XMLID_74_" class="st3" d="M154.3 51.7l2.3-3.4 16.9 7 35.5 14 17.2 3 22.6-3.6 18.9-5.8s15.5-8.2 16.3-8.8c.8-.6 11-5.9 11-5.9h3.8l6.4 16.9 8 35.4 8.5 20-4.8 7.8-.7 10.7v21.2l-7.8 26.8-10.1 21.1-12.1 8.4-10.1 2.6-4.8-3.7-2.2-9.5-6-10.7-15.9-7-15.6-3.3h-13.8l-11.9 2.1-10.2 4s-7 6.2-8.2 5.8c-1.2-.4-8.2 8.9-8.2 8.9l-1.6 10.4-5.8 4.4-8.6-2.6-9.4-8.2-7.3-10.5L142 184l-4.2-17-2.8-20.3 1.5-11.3-.6-6.8-2.8-5.7 3.6-13.2 6.4-15.9 3.5-14"/><path id="XMLID_73_" class="st5" d="M124.6 117.2l-.7-39.6 7.7-29.2 24.3-26.8 17.8-8.7 20.2-7.5 35.8-2.1 31.5 3.1 19.2 4.8 17.2 8.4 19.5 19 7.2 16.1 4.3 23.4 1.1 25.9-2.4 13.8-1 7.2s-6.7-5.5-6.8-6c-.1-.4-5-20.5-5-20.5s-9.8-35-10-35.6c-.2-.6-5.6-14.7-5.6-14.7l-15.6 6.3-33 12.9-34.1 4.8-28.8-11.6s-12.7-5-13.9-5.5-17-7.9-17-7.9l-1.8 11.5-11.9 34.2-7.7 20.6-3.8 6.8H125l-.4-3.1z"/><path id="XMLID_135_" class="st1" d="M231.9 242.1c2.3 3.7 5.5 8.7 15.1 8.7 7.9 0 13.2-3.2 15.8-9.6 2.1-5.1 2.1-11.4 2.1-16.9 0-16-17.9-29.1-39.8-29.1-22.3 0-39.8 12.8-39.8 29.1 0 9.2 0 26.4 16.8 26.4 9.1 0 12.5-4.4 15.2-8 2.2-2.9 3.8-4.9 8.1-5 3.4-.1 4.5 1.3 6.5 4.4zm-6.5-9.8c-6.9.1-9.9 4-12.3 7.1-2.6 3.3-4.6 6-11.1 6-9.8 0-11.5-7.1-11.5-21.1 0-13.1 15.5-23.8 34.5-23.8s34.5 10.7 34.5 23.8c0 5 0 10.7-1.7 14.9-1.8 4.4-5.2 6.4-10.9 6.4-6.7 0-8.5-2.9-10.6-6.2-2-3.1-4.4-7-10.7-7 0-.1-.1-.1-.2-.1z"/><path id="XMLID_65_" class="st1" d="M245.7 215.2c0-.7-.5-1.2-1.1-1.3-.6-.1-1.3.3-1.5 1-.1.4-2.8 9.1-18.3 9.2-15.5.2-17.7-8.8-17.8-9.1-.1-.7-.8-1.1-1.4-1-.7.1-1.2.6-1.2 1.3 0 6.8 9.1 12 20.6 12 11.7-.1 20.7-5.4 20.7-12.1z"/><path id="XMLID_113_" class="st1" d="M425.3 372.1c-.9-1.5-1.9-3-3-4.5-5.5-7.6-12.2-14-19.8-19.5-11.2-7.7-23.4-11.5-36.3-15l-.6-.3-37.8-12.3c-7.9-2.6-15.7-5.1-23.6-7.7-1.9-.6-4-1.6-6-2h-.3c-.1-.1-.3-.2-.5-.2-8.2-2.7-17.5-4.1-20.1-13.7-2.6-9.5-3-19.7-2.9-29.5 11.8-7.9 22.1-19 30.5-32.9 15.3-25.2 23.7-59.8 22-90.1l-.1-1.6c-.2-3.7-.2-3.7 1.1-8.1l.5-1.8c.4-1.3.6-2.6.7-3.8.3-.4.5-.9.5-1.5-.2-25 7.5-50.3-1.6-74.6-8.2-21.8-28-36.9-49.4-45.2-13.4-5.2-27.8-7.7-42.1-8.1-14.5-.3-29.1-.1-43.3 3-23.5 5.2-45.8 17.7-59.9 37.5-17.4 24.4-10.5 56.8-10.8 84.5 0 .2 0 .5.1.7-.2 1.8.1 3.8.7 6 1.1 3.9.9 6.5.6 9.6-.2 2.2-.4 4.5-.1 7.3.5 4.5.9 9.2 1.4 14 2.4 26.3 5.1 56.2 22.7 76.6 10 11.6 21.1 21.1 32.8 28 .1 9.6-.5 19.3-2.7 28.7-2.4 10.3-11.6 11.7-20.2 14.5-1 .2-2 .6-2.9.9-6.8 2.2-13.5 4.4-20.3 6.6-15 4.9-30.1 9.8-45.1 14.7l-.6.3c-15.6 4.2-30.2 9.2-42.7 20-6.5 5.6-11.9 12.2-16.3 19.4 2.3.8 3.5 3 3.6 5.2 9.1-16.3 23.2-29.2 42.8-35.6 4.8-1.6 9.8-2.8 14.8-4.1.3-.1.6-.2.9-.4 12.3-4 24.5-8 36.8-12 7.9-2.6 15.7-5.1 23.6-7.7 1.8-.6 3.9-1.7 5.7-1.9 3.8-.3 9.7 3.2 13.8 4.4 32 9.4 66.5 10.4 99.1 3.2 3.8-.8 7.5-1.8 11.3-2.9 4.2-1.2 8.8-3.7 13.1-4.3.8-.1.5-.6 1.5-.6.8 0 1.8.6 2.6.9 7 2.3 13.9 4.5 20.9 6.8 14.3 4.6 28.6 9.3 42.9 13.9.2.2.5.3.9.4 12.7 3.4 24.8 7.1 35.8 14.7 9 6.5 16.3 14.6 21.8 23.9.2-1.3 1.4-3.1 3.5-3.8zM126.7 91.3c-.1-13.5 1.7-25.7 6.4-38.3 8.1-21.5 30.9-35.7 52.1-42.3 13.1-4.1 26.5-5.5 40.2-5.4 13.9.1 27.4.6 41 4.3 21 5.8 46.5 19.7 54.9 41.1 5.2 13.2 6.5 25.8 5.8 40-.5 10-2 19.9-2.5 29.9-.3-.1-.7-.2-1-.2-6-10.7-8.2-24.8-11.2-36.5-3.2-12.3-5.4-25.6-10.4-37.4-.5-1.2-1.8-2.4-3.3-1.8-23.6 9.6-44.5 24.4-71 24.4s-47.4-14.7-71-24.4c-1.3-.5-2.9.6-3.3 1.8-3.8 12.7-7.1 25.5-10.8 38.2-2.2 7.3-4.4 14.6-7 21.8-1.4 4-2.8 9-5.5 12.6-.8-.1-1.5-.2-2.2 0-.3-9.2-1.1-18.5-1.2-27.8zM312.2 137c4.1 17-4 60.2-19.1 72.9-9.2 7.8-13.7 8.5-15.8 7.8-2.4-.9-4.3-4.7-5.4-11.4-2.9-16.7-25.7-24.2-47-24.2s-44.1 7.5-47 24.2c-1.2 6.7-3 10.5-5.4 11.4-2.1.8-6.5 0-15.8-7.8-15.3-12.9-21-58.3-17.2-74.2l.1-.4-.1-.5c-.3-2.7-.9-5.2-1.7-7.4h3.7v12.8c0 12.4 9.9 22.5 22 22.5 26.8 0 48-8.7 50.2-20.4h.2v-1.2-.9-2.5c0-5.5 5.5-9.9 12.4-9.9 6.8 0 12.4 4.4 12.4 9.9v3.3l-.1 1.2h.3c2.2 11.7 23.3 20.5 50.2 20.5 12.1 0 22-10.1 22-22.5v-12.8h3.1c-1.1 2.4-1.9 5.3-2.2 8.6l-.1.5.3.5zm-165.5 3.2c0-9.6 7.6-17.4 17-17.4h14.2c19.8 0 29.9 5 31 15.3v3.1c-1.6 8.8-22.3 16.3-45.2 16.3-9.4.1-17-7.7-17-17.3zm97.2 0c0-11.7 10.2-17.4 31.2-17.4h14.2c9.3 0 17 7.8 17 17.4 0 9.6-7.6 17.4-17 17.4-24.2 0-45.4-8.1-45.4-17.4zm64.6-22.6c-.2 0-.4 0-.7.1H283h.1-8c-17.1 0-28.3 3.9-33.3 11.6-3-4.8-8.9-7.9-15.4-7.9-6.4 0-12.3 3.1-15.3 7.8-5-7.7-16.1-11.5-33.2-11.5h-8 .1-22.2c-.2-.1-.4-.1-.7-.1h-10.2c.8-1.9 1.5-3.8 2.3-5.6 2.9-7.5 5.3-15.2 7.7-22.9 3.8-12.7 7.2-25.6 10.9-38.3 23.2 9.8 43.7 23.5 70 23.5 26.3 0 47-13.8 70.2-23.6 4.4 11.6 6.6 24.3 9.7 36.2 2.5 9.8 4.6 21 8.7 30.7h-7.9zM152 236.1c-16.4-19.2-19.1-48.1-21.4-73.7-.4-4.9-.9-9.6-1.4-14.1-.3-2.3-.1-4.2.1-6.3.3-3.3.6-6.7-.8-11.6-1-3.6-.4-5.5.1-5.9.1-.1.1-.1.4-.1.1 0 .3 0 .4.1 1.4.5 4.1 3.3 5 10.5-4.1 18.2 1.9 64.6 19.1 79 9.4 7.9 15.8 10.6 21 8.7 5.9-2.1 7.9-9.9 8.8-15.5 2.4-13.6 23.3-19.8 41.8-19.8 18.5 0 39.4 6.2 41.7 19.8 1 5.6 3 13.3 8.8 15.5 5.1 1.9 11.6-.8 21-8.7 16.5-13.9 25.1-58.9 20.9-77.7.6-4.5 1.9-7.3 3.1-8.9.7-.2 1.2-.7 1.5-1.4.2-.1.3-.2.4-.2.5-.2.7 0 .8 0 .5.5 1.2 2.3.1 5.9l-.5 1.7c-1.5 5.1-1.5 5.4-1.3 9.9l.1 1.6c1.7 29.3-6.4 62.7-21.2 87-15.9 26.3-39.1 42-65.3 44.1-29.1 2.4-59.4-12.1-83.2-39.9zm117.2 41.6c-11.4 8-26.9 14.2-40.7 14.4-8.1.1-16.3-2-24-4.7-6.3-2.2-13.4-4.9-18.6-9.5.1-2.5.1-5 .1-7.4 13.9 7.3 28.5 11.1 43 11.1 2.2 0 4.4-.1 6.7-.3 11.9-1 23.1-4.5 33.5-10.4v6.8zm18.2 36.1c-34.2 11.2-71.4 12.5-106.3 3.8-4.5-1.1-8.9-2.4-13.3-3.8l-.9-.3c6.4-2.1 12.3-4.9 15.1-11.8 2.1-5.2 3.2-11.1 3.7-17.2 11.3 8.2 28.3 12.6 41.2 12.9 14.1.3 30.4-5.6 42.7-13.5.5 6.6 1.6 13.1 4.2 18.6 3 6.3 8.6 9 14.7 11-.4.1-.8.2-1.1.3z"/></g><path id="XMLID_43_" class="st6" d="M208.9 138.2v3.1c-1.6 8.8-22.3 16.3-45.2 16.3-9.3 0-17-7.8-17-17.4 0-9.6 7.6-17.4 17-17.4h14.2c19.8.1 29.9 5.1 31 15.4z"/><path id="XMLID_40_" class="st6" d="M275 122.9h14.2c9.3 0 17 7.8 17 17.4 0 9.6-7.6 17.4-17 17.4-23 0-43.6-7.4-45.2-16.3v-3.1c1-10.3 11.2-15.4 31-15.4z"/><path id="XMLID_36_" class="st3" d="M186 277.9l-.4 6.8s5.1 3.8 9.9 5.9c4.8 2.1 8.8 3.8 13.7 4.9s12.7 2.9 20.1 2.6 12-1.5 15.5-2.6 9.8-3.4 12.8-4.8c3-1.5 8-3.8 9.9-5.4 1.9-1.6 1.9-1.2 1.9-1.2l-.3-6.4s-4.1 2.8-6.6 4.2-9.3 4.6-11.1 5.3-6.8 2.5-9.7 3.1c-2.9.7-7 1.5-10.7 1.6-2.8.1-6.8.3-11.5-.4-4.5-.7-14.4-3.8-17.9-5-2.8-1.2-9.1-3.7-15.6-8.6z"/><g id="XMLID_100_" class="st7"><path id="XMLID_35_" class="st8" d="M155.5 58.4s-7.2-24.8 11.1-17C184.9 49.1 212 56 227.5 56s53.6-13.7 64.8-16.5c10.4-2.6 10.8 16.7 12.3 23.5-.7.2-1-.3-6.7-1.1-14.7-2.3-37.6 25.4-70.3 25.4-32.7 0-46.1-31.3-73.6-25"/></g></g></svg>