<svg width="0" height="0" xmlns="http://www.w3.org/2000/svg" >
	<defs>
		<symbol id="close" viewBox="0 0 50 50">
			<circle cx="25" cy="25" r="25" fill="#D75A4A"/><path fill="none" stroke="#FFF" stroke-width="2" stroke-linecap="round" stroke-miterlimit="10" d="M16 34l9-9 9-9M16 16l9 9 9 9"/>
		</symbol>
		<symbol id="arrow-left" viewBox="0 0 49.656 49.656">
			<path d="M35.12 1.414l2.83 2.828-20.586 20.586L37.95 45.414l-2.83 2.828-23.413-23.414"/><path d="M35.122 49.656l-24.83-24.828L35.122 0l4.24 4.242L18.78 24.828l20.586 20.586-4.242 4.242zm-22-24.828l22 22 1.414-1.414L15.95 24.828 36.535 4.242 35.12 2.828l-22 22z"/>
		</symbol>
		<symbol id="arrow-right" viewBox="0 0 49.656 49.656">
			<path d="M14.535 48.242l-2.828-2.828 20.585-20.586L11.707 4.242l2.828-2.828L37.95 24.828"/><path d="M14.535 49.656l-4.242-4.242 20.585-20.586L10.293 4.242 14.535 0l24.83 24.828-24.83 24.828zm-1.414-4.242l1.415 1.414 22-22-22-22-1.414 1.414 20.586 20.586L13.12 45.414z"/>
		</symbol>
		<symbol id="codificacao" viewBox="0 1 64 64">
			<path d="M0 15v50h64V1H0v14zm62 48H2V17h60v46zM2 3h60v12H2V3z"/><path d="M10.6 40.3L24.8 33v2.1l-11.9 6v.1l11.9 6v2.1L10.6 42v-1.7zM26.7 50.5l8.5-22.2h2.1l-8.6 22.2h-2zM53.4 42l-14.2 7.3v-2.1l12-6v-.1l-12-6V33l14.2 7.3V42z"/>
		</symbol>
		<symbol id="criacao-theme" width="64" height="64" viewBox="0 0 64 64">
			<path d="M0 14v50h64V0H0v14zm2 2h19v46H2V16zm21 46V39h39v23H23zm39-25H23V16h39v21zM2 2h60v12H2V2z"/>
		</symbol>
		<symbol id="cta-talk" viewBox="0 1 64 64">
			<path d="M10 16h44v2H10v-2zM10 26h44v2H10v-2zM10 36h44v2H10v-2z"/><path d="M17 62.2L32.4 49H64V5H0v44h17v13.2zM2 47V7h60v40H31.6L19 57.8V47H2z"/>
		</symbol>
		<symbol id="left" viewBox="0 0 55 38">
			<path d="M12.1 13.8c6.6 0 12 5.4 12 12s-5.4 12-12 12-12-5.4-12-12L0 24.2C0 10.9 10.8.2 24 .2V7c-4.6 0-8.9 1.8-12.1 5-.6.6-1.2 1.3-1.7 2 .6-.1 1.2-.2 1.9-.2zm30.9 0c6.6 0 12 5.4 12 12s-5.4 12-12 12-12-5.4-12-12l-.1-1.7c0-13.3 10.8-24 24-24V7c-4.6 0-8.9 1.8-12.1 5-.6.6-1.2 1.3-1.7 2 .6-.1 1.2-.2 1.9-.2zm0 0"/>
		</symbol>
		<symbol id="rigth" viewBox="0 0 55 38">
			<path d="M42.9 24.2c-6.6 0-12-5.4-12-12s5.4-12 12-12 12 5.4 12 12l.1 1.7c0 13.3-10.8 24-24 24V31c4.6 0 8.9-1.8 12.1-5 .6-.6 1.2-1.3 1.7-2-.6.1-1.2.2-1.9.2zm-30.9 0c-6.6 0-12-5.4-12-12S5.4.2 12 .2s12 5.4 12 12l.1 1.7c0 13.3-10.8 24-24 24V31c4.6 0 8.9-1.8 12.1-5 .6-.6 1.2-1.3 1.7-2-.6.1-1.2.2-1.9.2zm0 0"/>
		</symbol>
		<symbol id="email-template" viewBox="0 1 64 64">
			<path d="M0 16v50h64V2H0v14zm62 48H2V18h60v46zM2 4h60v12H2V4z"/><path d="M38.6 47c-.7 0-1.2-.1-1.6-.3-.4-.2-.7-.5-.9-.7-.4.2-.9.5-1.5.7-.6.2-1.3.4-2.1.4-.9 0-1.8-.1-2.6-.4-.8-.3-1.5-.7-2-1.3s-1-1.3-1.4-2.1c-.3-.9-.5-1.9-.5-3 0-1 .1-1.9.4-2.7.3-.8.7-1.6 1.3-2.2.6-.6 1.3-1.1 2.1-1.5.8-.4 1.8-.5 2.8-.5 1 0 1.9.1 2.6.3.8.2 1.4.4 1.8.5v9c0 .8.1 1.4.4 1.7.3.3.6.5 1.1.5.7 0 1.3-.2 1.7-.7.4-.4.8-1 1-1.7.3-.7.4-1.4.5-2.1.1-.7.2-1.4.2-2 0-1.3-.2-2.6-.7-3.8-.4-1.2-1.1-2.3-1.9-3.2-.8-.9-1.9-1.6-3.1-2.2-1.2-.5-2.6-.8-4.2-.8s-3 .2-4.3.7c-1.3.5-2.4 1.2-3.3 2.2-.9 1-1.6 2.1-2.1 3.5s-.8 3-.8 4.8c0 1.9.3 3.6.8 5 .6 1.4 1.3 2.6 2.3 3.6 1 1 2.1 1.7 3.5 2.2 1.3.5 2.8.7 4.3.7 1.2 0 2.1-.1 2.8-.2.7-.1 1.1-.2 1.4-.3l.2 1.7c-.3.1-.9.2-1.7.3-.8.1-1.7.2-2.6.2-1.8 0-3.4-.3-5-.8s-2.9-1.3-4.1-2.4c-1.2-1.1-2.1-2.5-2.8-4.1-.7-1.6-1-3.6-1-5.9 0-2.2.3-4.1 1-5.7.7-1.6 1.5-3 2.7-4.1 1.1-1.1 2.5-1.9 4-2.4s3.1-.8 4.8-.8c1.6 0 3.2.3 4.6.8s2.7 1.3 3.8 2.4c1.1 1 1.9 2.3 2.6 3.7.6 1.4.9 3.1.9 4.9 0 1.3-.1 2.5-.4 3.5-.3 1-.7 1.8-1.2 2.5s-1.1 1.2-1.8 1.5c-.5.4-1.2.6-2 .6zm-6.1-1.7c.7 0 1.3-.1 1.7-.2.4-.1.9-.3 1.3-.6-.1-.2-.1-.5-.2-.8v-8.6c-.2 0-.4-.1-.8-.2-.4.1-.9.1-1.5.1-.8 0-1.5.1-2.1.4-.6.3-1.1.6-1.5 1.1-.4.5-.7 1-.9 1.7-.2.6-.3 1.3-.3 2.1 0 .9.1 1.7.3 2.3.2.7.5 1.2.9 1.6.4.4.8.7 1.4.9.5.1 1.1.2 1.7.2z"/>
		</symbol>
		<symbol id="icon-email" viewBox="0 0 65 65">
			<path d="M44.3 29.8c-3 2.3-5.4 4.2-7.2 5.7-.6.5-1 .9-1.4 1.1-.4.3-.8.5-1.5.8-.6.3-1.2.4-1.7.4s-1.1-.1-1.7-.4c-.6-.3-1.1-.5-1.5-.8-.4-.3-.8-.6-1.4-1.1-1.8-1.5-4.2-3.4-7.2-5.7-.4-.3-.8-.7-1.2-1.1v12.9c0 .1.1.3.2.4.1.1.2.2.4.2h24.8c.1 0 .3-.1.4-.2.1-.1.2-.2.2-.4V28.7c-.4.4-.8.8-1.2 1.1z"/><path d="M45.4 23.1s-.1 0-.1-.2c0-.1-.1-.1-.2-.1h-25c-.1 0-.3.1-.4.2-.1.1-.2.2-.2.4 0 1.9.8 3.5 2.5 4.8 2.2 1.7 4.4 3.5 6.8 5.3.1.1.3.2.6.5s.6.5.8.6c.2.1.4.3.8.5.3.2.6.4.9.5.3.1.5.2.7.2.2 0 .5-.1.7-.2.3-.1.5-.3.9-.5.3-.2.6-.4.7-.5.2-.1.5-.4.8-.6.3-.3.5-.4.6-.5 2.3-1.9 4.6-3.6 6.8-5.3.6-.5 1.2-1.1 1.7-1.9.5-.8.8-1.6.8-2.2v-.4-.2c-.2-.3-.2-.4-.2-.4z"/><path d="M32.5 0C14.6 0 0 14.6 0 32.5S14.6 65 32.5 65 65 50.4 65 32.5 50.4 0 32.5 0zm15.1 41.7c0 .7-.3 1.4-.8 1.9s-1.2.8-1.9.8H20.1c-.7 0-1.4-.3-1.9-.8s-.8-1.2-.8-1.9V23.3c0-.7.3-1.4.8-1.9s1.2-.8 1.9-.8h24.8c.7 0 1.4.3 1.9.8s.8 1.2.8 1.9v18.4z"/>
		</symbol>
		<symbol id="icon-linkedin" viewBox="0 0 65 65">
			<path d="M32.5 0C14.5 0 0 14.6 0 32.5S14.5 65 32.5 65 65 50.4 65 32.5 50.5 0 32.5 0zM21.3 16.3c1.7 0 3 1.4 3 3 0 1.7-1.4 3-3 3-1.7 0-3-1.4-3-3 0-1.7 1.3-3 3-3zm3.1 28.4h-6.1V24.4h6.1v20.3zm24.4 0h-6.1V33.6c0-2.3-.7-4.5-3.3-4.5-2.7 0-4.8 2.3-4.8 4.6v11h-6.1V24.3h6.1v2.8c1.9-2.4 4.5-3.5 7.5-3.5s6.7 1.5 6.7 9.5v11.6z"/>
		</symbol>
		<symbol id="icon-facebook" viewBox="0 0 65 65">
			<path d="M32.5 0C14.5 0 0 14.5 0 32.5 0 50.4 14.5 65 32.5 65 50.4 65 65 50.4 65 32.5 65 14.5 50.4 0 32.5 0zm7.7 22.5h-4.9c-.6 0-1.2.8-1.2 1.8v3.5h6.1v5h-6.1v15.1h-5.8V32.8h-5.2v-5h5.2v-3c0-4.2 2.9-7.7 7-7.7h4.9v5.4zm0 0"/>
		</symbol>
		<symbol id="instalacao-wordpress" width="64" height="64" viewBox="0 0 64 64">
			<path d="M32 5.91L-.6 20.037l15.6 6.24-15.6 6.76 15.6 6.24-15.6 6.76L32 59.077l32.6-13.04-15.6-6.76 15.6-6.24-15.6-6.76 15.6-6.24L32 5.91zm27.4 40.053L32 56.923 4.6 45.963l13.016-5.64L32 46.077l14.384-5.753 13.015 5.64zm0-13l-12.985 5.194-.018-.008-.008.017L32 43.923l-14.39-5.756-.008-.02-.02.01-12.98-5.194 13.014-5.64L32 33.077l14.384-5.753 13.015 5.64zM46.396 25.15l-.008.017L32 30.923l-14.39-5.756-.008-.02-.02.01-12.98-5.194L32 8.09l27.4 11.873-12.985 5.194-.018-.008z"/>
		</symbol>
		<symbol id="entender" width="64" height="64" viewBox="0 0 64 64">
			<path d="M13 61.683L26.374 50H56V10H0v40h13v11.683zM2 48V12h52v36H25.626L15 57.29V48H2z"/><path d="M57 40v2h7V2H8v7h2V4h52v36"/>
		</symbol>
		<symbol id="planejar" width="64" height="64" viewBox="0 0 64 64">
			<path d="M16 23h22v2H16zM16 33h22v2H16zM16 43h22v2H16zM16 53h22v2H16zM8 23h4v2H8zM8 33h4v2H8zM8 43h4v2H8zM8 53h4v2H8z"/><path d="M46 7H32.53l-.75-3H28V0H18v4h-3.78l-.75 3H0v57h46V7zM15.78 6H20V2h6v4h4.22l1.5 6H14.28l1.5-6zM44 62H2V9h10.97l-1.25 5h22.56l-1.25-5H44v53zM64 54.236V0H54v54.236l5 10 5-10zM62 2v8h-6V2h6zm-6 10h6v41.764l-3 6-3-6V12z"/>
		</symbol>
		<symbol id="desenvolver" width="64" height="64" viewBox="0 0 64 64">
			<path d="M0 14v50h64V0H0v14zm2 2h39v46H2V16zm60 46H43V16h19v46zM2 2h60v12H2V2z"/>
		</symbol>
		<symbol id="migracao-site" width="64" height="64" viewBox="0 0 64 64">
			<path d="M0 58h64V6H0v52zm2-2V16h60v40H2zM62 8v6H2V8h60z"/><path d="M32.2 42.6L34 45h-2c-3.942 0-7-4.3-7-8h-2c0 4.72 3.85 10 9 10h2l-1.8 2.4 1.7 1.2 3.1-4v-1.2l-3.1-4-1.7 1.2zM34 27h-2l1.8-2.4-1.7-1.2-3.1 4v1.2l3.1 4 1.65-1.2L32 29h2c3.942 0 7 4.3 7 8h2c0-4.72-3.85-10-9-10zM6 10h4v2H6zM14 10h4v2h-4zM22 10h4v2h-4z"/>
		</symbol>
		<symbol id="performance" viewBox="0 1 64 64">
			<path d="M0 60h64V8H0v52zm2-2V18h60v40H2zm60-48v6H2v-6h60z"/><path d="M6 12h4v2H6zM14 12h4v2h-4zM22 12h4v2h-4zM46.5 44c-1.3 0-2.4-1.1-2.4-2.4 0-1.3 1.1-2.4 2.4-2.4 1.3 0 2.4 1.1 2.4 2.4 0 1.4-1.1 2.4-2.4 2.4zM26.4 26.2c-1.3 0-2.4-1.1-2.4-2.4s1.1-2.4 2.4-2.4 2.4 1.1 2.4 2.4c-.1 1.4-1.1 2.4-2.4 2.4zM37 53.5c-1.3 0-2.4-1.1-2.4-2.4 0-1.3 1.1-2.4 2.4-2.4s2.4 1.1 2.4 2.4-1.1 2.4-2.4 2.4zM17.5 42.2c-1.3 0-2.4-1.1-2.4-2.4 0-1.3 1.1-2.4 2.4-2.4s2.4 1.1 2.4 2.4c0 1.4-1.1 2.4-2.4 2.4z"/><g><path d="M18.6 38.4l-1.1-.6 7.1-13.1 1.1.6-7.1 13.1z"/></g><g><path d="M39.3 50.3l-.9-.8 6.5-7.1.9.8-6.5 7.1z"/></g><g><path d="M35.3 49.5L27 25.2l1.1-.4 8.3 24.3-1.1.4z"/></g>
		</symbol>
	</defs>
</svg>